<svg width="22" height="19" viewBox="0 0 22 19" fill="none" xmlns="http://www.w3.org/2000/svg">
<path d="M18.66 1.49004C16.02 -0.309956 12.76 0.530044 11 2.59004C9.24 0.530044 5.98 -0.319956 3.34 1.49004C1.94 2.45004 1.06 4.07004 1 5.78004C0.86 9.66004 4.3 12.77 9.55 17.54L9.65 17.63C10.41 18.32 11.58 18.32 12.34 17.62L12.45 17.52C17.7 12.76 21.13 9.65004 21 5.77004C20.94 4.07004 20.06 2.45004 18.66 1.49004ZM11.1 16.05L11 16.15L10.9 16.05C6.14 11.74 3 8.89004 3 6.00004C3 4.00004 4.5 2.50004 6.5 2.50004C8.04 2.50004 9.54 3.49004 10.07 4.86004H11.94C12.46 3.49004 13.96 2.50004 15.5 2.50004C17.5 2.50004 19 4.00004 19 6.00004C19 8.89004 15.86 11.74 11.1 16.05Z" fill="black" fill-opacity="0.3"/>
</svg>
